<svg xmlns="http://www.w3.org/2000/svg" viewBox="0 0 128 128">
  <!-- Claude orange rounded square background -->
  <rect width="128" height="128" rx="28" ry="28" fill="#C96442"/>
  <!-- Lucide square-pen icon, white, centered, ~70% canvas -->
  <g transform="translate(28 28) scale(3.0)" fill="none" stroke="#FAF9F5" stroke-width="2" stroke-linecap="round" stroke-linejoin="round">
    <path d="M12 3H5a2 2 0 0 0-2 2v14a2 2 0 0 0 2 2h14a2 2 0 0 0 2-2v-7"/>
    <path d="M18.375 2.625a1 1 0 0 1 3 3l-9.013 9.014a2 2 0 0 1-.853.505l-2.873.84a.5.5 0 0 1-.62-.62l.84-2.873a2 2 0 0 1 .506-.852z"/>
  </g>
</svg>
